<svg width="738" height="364" viewBox="0 0 738 364" fill="none" xmlns="http://www.w3.org/2000/svg">
<path d="M153.636 183.439C154.465 183.439 155.136 182.768 155.136 181.939C155.136 181.111 154.465 180.439 153.636 180.439V183.439ZM55.4111 168.406C55.4111 167.577 54.7395 166.906 53.9111 166.906C53.0827 166.906 52.4111 167.577 52.4111 168.406H55.4111ZM55.4111 168.406C55.4111 167.577 54.7395 166.906 53.9111 166.906C53.0827 166.906 52.4111 167.577 52.4111 168.406H55.4111ZM33.4139 117.105C34.2423 117.105 34.9139 116.434 34.9139 115.605C34.9139 114.777 34.2423 114.105 33.4139 114.105V117.105ZM33.7755 114.105C32.9471 114.105 32.2755 114.777 32.2755 115.605C32.2755 116.434 32.9471 117.105 33.7755 117.105V114.105ZM37.0133 117.364C37.8302 117.502 38.6041 116.952 38.742 116.135C38.8798 115.318 38.3293 114.544 37.5125 114.406L37.0133 117.364ZM46.3544 118.07C45.6791 117.59 44.7427 117.749 44.2627 118.424C43.7828 119.099 43.9411 120.035 44.6163 120.515L46.3544 118.07ZM49.0011 124.9C49.4811 125.576 50.4175 125.734 51.0928 125.254C51.768 124.774 51.9263 123.837 51.4463 123.162L49.0011 124.9ZM55.1106 132.004C54.9727 131.187 54.1988 130.637 53.3819 130.775C52.565 130.912 52.0146 131.686 52.1524 132.503L55.1106 132.004ZM52.4111 138.398C52.4111 139.226 53.0827 139.898 53.9111 139.898C54.7395 139.898 55.4111 139.226 55.4111 138.398H52.4111ZM55.4111 145.843C55.4111 145.015 54.7395 144.343 53.9111 144.343C53.0827 144.343 52.4111 145.015 52.4111 145.843H55.4111ZM52.4111 151.428C52.4111 152.256 53.0827 152.928 53.9111 152.928C54.7395 152.928 55.4111 152.256 55.4111 151.428H52.4111ZM55.4111 158.874C55.4111 158.045 54.7395 157.374 53.9111 157.374C53.0827 157.374 52.4111 158.045 52.4111 158.874H55.4111ZM52.4111 164.458C52.4111 165.286 53.0827 165.958 53.9111 165.958C54.7395 165.958 55.4111 165.286 55.4111 164.458H52.4111ZM55.4111 171.904C55.4111 171.075 54.7395 170.404 53.9111 170.404C53.0827 170.404 52.4111 171.075 52.4111 171.904H55.4111ZM55.4111 173.348C55.4111 172.52 54.7395 171.848 53.9111 171.848C53.0827 171.848 52.4111 172.52 52.4111 173.348H55.4111ZM52.4111 169.754C52.4111 170.582 53.0827 171.254 53.9111 171.254C54.7395 171.254 55.4111 170.582 55.4111 169.754H52.4111ZM52.6212 170.923C52.7591 171.74 53.533 172.291 54.3499 172.153C55.1668 172.015 55.7173 171.241 55.5794 170.424L52.6212 170.923ZM57.6289 175.369C57.1489 174.694 56.2125 174.535 55.5373 175.015C54.862 175.495 54.7037 176.432 55.1837 177.107L57.6289 175.369ZM58.7437 180.667C59.4189 181.147 60.3553 180.988 60.8353 180.313C61.3153 179.638 61.157 178.702 60.4817 178.222L58.7437 180.667ZM65.4262 180.271C64.6094 180.133 63.8354 180.684 63.6976 181.501C63.5597 182.317 64.1102 183.091 64.9271 183.229L65.4262 180.271ZM70.523 183.439C71.3515 183.439 72.023 182.768 72.023 181.939C72.023 181.111 71.3515 180.439 70.523 180.439V183.439ZM78.7317 180.439C77.9033 180.439 77.2317 181.111 77.2317 181.939C77.2317 182.768 77.9033 183.439 78.7317 183.439V180.439ZM84.8883 183.439C85.7167 183.439 86.3883 182.768 86.3883 181.939C86.3883 181.111 85.7167 180.439 84.8883 180.439V183.439ZM93.097 180.439C92.2686 180.439 91.597 181.111 91.597 181.939C91.597 182.768 92.2686 183.439 93.097 183.439V180.439ZM99.2535 183.439C100.082 183.439 100.754 182.768 100.754 181.939C100.754 181.111 100.082 180.439 99.2535 180.439V183.439ZM107.462 180.439C106.634 180.439 105.962 181.111 105.962 181.939C105.962 182.768 106.634 183.439 107.462 183.439V180.439ZM113.619 183.439C114.447 183.439 115.119 182.768 115.119 181.939C115.119 181.111 114.447 180.439 113.619 180.439V183.439ZM121.827 180.439C120.999 180.439 120.327 181.111 120.327 181.939C120.327 182.768 120.999 183.439 121.827 183.439V180.439ZM127.984 183.439C128.812 183.439 129.484 182.768 129.484 181.939C129.484 181.111 128.812 180.439 127.984 180.439V183.439ZM136.193 180.439C135.364 180.439 134.693 181.111 134.693 181.939C134.693 182.768 135.364 183.439 136.193 183.439V180.439ZM142.349 183.439C143.178 183.439 143.849 182.768 143.849 181.939C143.849 181.111 143.178 180.439 142.349 180.439V183.439ZM150.558 180.439C149.73 180.439 149.058 181.111 149.058 181.939C149.058 182.768 149.73 183.439 150.558 183.439V180.439ZM33.2783 115.605V117.105H33.4139V115.605V114.105H33.2783V115.605ZM33.7755 115.605V117.105H33.9111V115.605V114.105H33.7755V115.605ZM33.9111 115.605V117.105C34.9693 117.105 36.0056 117.194 37.0133 117.364L37.2629 115.885L37.5125 114.406C36.3405 114.208 35.1372 114.105 33.9111 114.105V115.605ZM45.4853 119.293L44.6163 120.515C46.3119 121.721 47.7959 123.205 49.0011 124.9L50.2237 124.031L51.4463 123.162C50.0466 121.193 48.3236 119.47 46.3544 118.07L45.4853 119.293ZM53.6315 132.254L52.1524 132.503C52.3224 133.511 52.4111 134.547 52.4111 135.605H53.9111H55.4111C55.4111 134.379 55.3083 133.176 55.1106 132.004L53.6315 132.254ZM53.9111 135.605H52.4111V138.398H53.9111H55.4111V135.605H53.9111ZM53.9111 145.843H52.4111V151.428H53.9111H55.4111V145.843H53.9111ZM53.9111 158.874H52.4111V164.458H53.9111H55.4111V158.874H53.9111ZM53.9111 171.904H52.4111V174.696H53.9111H55.4111V171.904H53.9111ZM53.9111 174.696H55.4111V173.348H53.9111H52.4111V174.696H53.9111ZM53.9111 169.754H55.4111V168.406H53.9111H52.4111V169.754H53.9111ZM53.9111 168.406H52.4111C52.4111 169.263 52.4829 170.104 52.6212 170.923L54.1003 170.674L55.5794 170.424C55.4688 169.769 55.4111 169.095 55.4111 168.406H53.9111ZM56.4063 176.238L55.1837 177.107C56.1623 178.484 57.3669 179.688 58.7437 180.667L59.6127 179.444L60.4817 178.222C59.3786 177.437 58.413 176.472 57.6289 175.369L56.4063 176.238ZM65.1767 181.75L64.9271 183.229C65.7467 183.368 66.5879 183.439 67.4448 183.439V181.939V180.439C66.7559 180.439 66.0816 180.382 65.4262 180.271L65.1767 181.75ZM67.4448 181.939V183.439H70.523V181.939V180.439H67.4448V181.939ZM78.7317 181.939V183.439H84.8883V181.939V180.439H78.7317V181.939ZM93.097 181.939V183.439H99.2535V181.939V180.439H93.097V181.939ZM107.462 181.939V183.439H113.619V181.939V180.439H107.462V181.939ZM121.827 181.939V183.439H127.984V181.939V180.439H121.827V181.939ZM136.193 181.939V183.439H142.349V181.939V180.439H136.193V181.939ZM150.558 181.939V183.439H153.636V181.939V180.439H150.558V181.939Z" fill="#C1A265" fill-opacity="0.7"/>
<path d="M584.364 183.439C583.535 183.439 582.864 182.768 582.864 181.939C582.864 181.111 583.535 180.439 584.364 180.439V183.439ZM682.589 168.406C682.589 167.577 683.26 166.906 684.089 166.906C684.917 166.906 685.589 167.577 685.589 168.406H682.589ZM682.589 168.406C682.589 167.577 683.26 166.906 684.089 166.906C684.917 166.906 685.589 167.577 685.589 168.406H682.589ZM704.586 117.105C703.758 117.105 703.086 116.434 703.086 115.605C703.086 114.777 703.758 114.105 704.586 114.105V117.105ZM704.224 114.105C705.053 114.105 705.724 114.777 705.724 115.605C705.724 116.434 705.053 117.105 704.224 117.105V114.105ZM700.987 117.364C700.17 117.502 699.396 116.952 699.258 116.135C699.12 115.318 699.671 114.544 700.488 114.406L700.987 117.364ZM691.646 118.07C692.321 117.59 693.257 117.749 693.737 118.424C694.217 119.099 694.059 120.035 693.384 120.515L691.646 118.07ZM688.999 124.9C688.519 125.576 687.582 125.734 686.907 125.254C686.232 124.774 686.074 123.837 686.554 123.162L688.999 124.9ZM682.889 132.004C683.027 131.187 683.801 130.637 684.618 130.775C685.435 130.912 685.985 131.686 685.848 132.503L682.889 132.004ZM685.589 138.398C685.589 139.226 684.917 139.898 684.089 139.898C683.26 139.898 682.589 139.226 682.589 138.398H685.589ZM682.589 145.843C682.589 145.015 683.26 144.343 684.089 144.343C684.917 144.343 685.589 145.015 685.589 145.843H682.589ZM685.589 151.428C685.589 152.256 684.917 152.928 684.089 152.928C683.26 152.928 682.589 152.256 682.589 151.428H685.589ZM682.589 158.874C682.589 158.045 683.26 157.374 684.089 157.374C684.917 157.374 685.589 158.045 685.589 158.874H682.589ZM685.589 164.458C685.589 165.286 684.917 165.958 684.089 165.958C683.26 165.958 682.589 165.286 682.589 164.458H685.589ZM682.589 171.904C682.589 171.075 683.26 170.404 684.089 170.404C684.917 170.404 685.589 171.075 685.589 171.904H682.589ZM682.589 173.348C682.589 172.52 683.26 171.848 684.089 171.848C684.917 171.848 685.589 172.52 685.589 173.348H682.589ZM685.589 169.754C685.589 170.582 684.917 171.254 684.089 171.254C683.26 171.254 682.589 170.582 682.589 169.754H685.589ZM685.379 170.923C685.241 171.74 684.467 172.291 683.65 172.153C682.833 172.015 682.283 171.241 682.421 170.424L685.379 170.923ZM680.371 175.369C680.851 174.694 681.788 174.535 682.463 175.015C683.138 175.495 683.296 176.432 682.816 177.107L680.371 175.369ZM679.256 180.667C678.581 181.147 677.645 180.988 677.165 180.313C676.685 179.638 676.843 178.702 677.518 178.222L679.256 180.667ZM672.574 180.271C673.391 180.133 674.165 180.684 674.302 181.501C674.44 182.317 673.89 183.091 673.073 183.229L672.574 180.271ZM667.477 183.439C666.649 183.439 665.977 182.768 665.977 181.939C665.977 181.111 666.649 180.439 667.477 180.439V183.439ZM659.268 180.439C660.097 180.439 660.768 181.111 660.768 181.939C660.768 182.768 660.097 183.439 659.268 183.439V180.439ZM653.112 183.439C652.283 183.439 651.612 182.768 651.612 181.939C651.612 181.111 652.283 180.439 653.112 180.439V183.439ZM644.903 180.439C645.731 180.439 646.403 181.111 646.403 181.939C646.403 182.768 645.731 183.439 644.903 183.439V180.439ZM638.746 183.439C637.918 183.439 637.246 182.768 637.246 181.939C637.246 181.111 637.918 180.439 638.746 180.439V183.439ZM630.538 180.439C631.366 180.439 632.038 181.111 632.038 181.939C632.038 182.768 631.366 183.439 630.538 183.439V180.439ZM624.381 183.439C623.553 183.439 622.881 182.768 622.881 181.939C622.881 181.111 623.553 180.439 624.381 180.439V183.439ZM616.173 180.439C617.001 180.439 617.673 181.111 617.673 181.939C617.673 182.768 617.001 183.439 616.173 183.439V180.439ZM610.016 183.439C609.188 183.439 608.516 182.768 608.516 181.939C608.516 181.111 609.188 180.439 610.016 180.439V183.439ZM601.807 180.439C602.636 180.439 603.307 181.111 603.307 181.939C603.307 182.768 602.636 183.439 601.807 183.439V180.439ZM595.651 183.439C594.822 183.439 594.151 182.768 594.151 181.939C594.151 181.111 594.822 180.439 595.651 180.439V183.439ZM587.442 180.439C588.27 180.439 588.942 181.111 588.942 181.939C588.942 182.768 588.27 183.439 587.442 183.439V180.439ZM704.722 115.605V117.105H704.586V115.605V114.105H704.722V115.605ZM704.224 115.605V117.105H704.089V115.605V114.105H704.224V115.605ZM704.089 115.605V117.105C703.031 117.105 701.994 117.194 700.987 117.364L700.737 115.885L700.488 114.406C701.66 114.208 702.863 114.105 704.089 114.105V115.605ZM692.515 119.293L693.384 120.515C691.688 121.721 690.204 123.205 688.999 124.9L687.776 124.031L686.554 123.162C687.953 121.193 689.676 119.47 691.646 118.07L692.515 119.293ZM684.369 132.254L685.848 132.503C685.678 133.511 685.589 134.547 685.589 135.605H684.089H682.589C682.589 134.379 682.692 133.176 682.889 132.004L684.369 132.254ZM684.089 135.605H685.589V138.398H684.089H682.589V135.605H684.089ZM684.089 145.843H685.589V151.428H684.089H682.589V145.843H684.089ZM684.089 158.874H685.589V164.458H684.089H682.589V158.874H684.089ZM684.089 171.904H685.589V174.696H684.089H682.589V171.904H684.089ZM684.089 174.696H682.589V173.348H684.089H685.589V174.696H684.089ZM684.089 169.754H682.589V168.406H684.089H685.589V169.754H684.089ZM684.089 168.406H685.589C685.589 169.263 685.517 170.104 685.379 170.923L683.9 170.674L682.421 170.424C682.531 169.769 682.589 169.095 682.589 168.406H684.089ZM681.594 176.238L682.816 177.107C681.838 178.484 680.633 179.688 679.256 180.667L678.387 179.444L677.518 178.222C678.621 177.437 679.587 176.472 680.371 175.369L681.594 176.238ZM672.823 181.75L673.073 183.229C672.253 183.368 671.412 183.439 670.555 183.439V181.939V180.439C671.244 180.439 671.918 180.382 672.574 180.271L672.823 181.75ZM670.555 181.939V183.439H667.477V181.939V180.439H670.555V181.939ZM659.268 181.939V183.439H653.112V181.939V180.439H659.268V181.939ZM644.903 181.939V183.439H638.746V181.939V180.439H644.903V181.939ZM630.538 181.939V183.439H624.381V181.939V180.439H630.538V181.939ZM616.173 181.939V183.439H610.016V181.939V180.439H616.173V181.939ZM601.807 181.939V183.439H595.651V181.939V180.439H601.807V181.939ZM587.442 181.939V183.439H584.364V181.939V180.439H587.442V181.939Z" fill="#C1A265" fill-opacity="0.7"/>
<path d="M153.062 182.703L153.066 184.203H153.062V182.703ZM474.947 180.441C475.776 180.439 476.449 181.109 476.451 181.937C476.453 182.766 475.783 183.439 474.955 183.441L474.947 180.441ZM54.8369 196.237C54.8369 197.065 54.1653 197.737 53.3369 197.737C52.5085 197.737 51.8369 197.065 51.8369 196.237H54.8369ZM54.8369 196.237C54.8369 197.065 54.1653 197.737 53.3369 197.737C52.5085 197.737 51.8369 197.065 51.8369 196.237H54.8369ZM32.8397 247.537C33.6681 247.537 34.3397 248.209 34.3397 249.037C34.3397 249.866 33.6681 250.537 32.8397 250.537V247.537ZM33.2013 250.537C32.3729 250.537 31.7013 249.866 31.7013 249.037C31.7013 248.209 32.3729 247.537 33.2013 247.537V250.537ZM36.4391 247.278C37.256 247.141 38.0299 247.691 38.1678 248.508C38.3056 249.325 37.7551 250.099 36.9382 250.237L36.4391 247.278ZM45.7801 246.572C45.1049 247.052 44.1685 246.894 43.6885 246.219C43.2085 245.544 43.3668 244.607 44.0421 244.127L45.7801 246.572ZM48.4269 239.742C48.9069 239.067 49.8433 238.909 50.5186 239.389C51.1938 239.869 51.3521 240.805 50.8721 241.48L48.4269 239.742ZM54.5364 232.638C54.3985 233.455 53.6246 234.006 52.8077 233.868C51.9908 233.73 51.4403 232.956 51.5782 232.139L54.5364 232.638ZM51.8369 226.245C51.8369 225.417 52.5085 224.745 53.3369 224.745C54.1653 224.745 54.8369 225.417 54.8369 226.245H51.8369ZM54.8369 218.799C54.8369 219.628 54.1653 220.299 53.3369 220.299C52.5085 220.299 51.8369 219.628 51.8369 218.799H54.8369ZM51.8369 213.215C51.8369 212.386 52.5085 211.715 53.3369 211.715C54.1653 211.715 54.8369 212.386 54.8369 213.215H51.8369ZM54.8369 205.769C54.8369 206.597 54.1653 207.269 53.3369 207.269C52.5085 207.269 51.8369 206.597 51.8369 205.769H54.8369ZM51.8369 200.185C51.8369 199.356 52.5085 198.685 53.3369 198.685C54.1653 198.685 54.8369 199.356 54.8369 200.185H51.8369ZM54.8369 192.739C54.8369 193.567 54.1653 194.239 53.3369 194.239C52.5085 194.239 51.8369 193.567 51.8369 192.739H54.8369ZM54.8369 191.294C54.8369 192.123 54.1653 192.794 53.3369 192.794C52.5085 192.794 51.8369 192.123 51.8369 191.294H54.8369ZM51.8369 194.889C51.8369 194.06 52.5085 193.389 53.3369 193.389C54.1653 193.389 54.8369 194.06 54.8369 194.889H51.8369ZM52.047 193.719C52.1849 192.902 52.9588 192.352 53.7757 192.49C54.5926 192.627 55.143 193.401 55.0052 194.218L52.047 193.719ZM57.0547 189.274C56.5747 189.949 55.6383 190.107 54.963 189.627C54.2878 189.147 54.1295 188.211 54.6095 187.536L57.0547 189.274ZM58.1694 183.976C58.8447 183.496 59.7811 183.654 60.2611 184.329C60.741 185.005 60.5827 185.941 59.9075 186.421L58.1694 183.976ZM64.852 184.371C64.0351 184.509 63.2612 183.959 63.1234 183.142C62.9855 182.325 63.536 181.551 64.3529 181.413L64.852 184.371ZM69.9488 181.203C70.7772 181.203 71.4488 181.875 71.4488 182.703C71.4488 183.532 70.7772 184.203 69.9488 184.203V181.203ZM78.1575 184.203C77.3291 184.203 76.6575 183.532 76.6575 182.703C76.6575 181.875 77.3291 181.203 78.1575 181.203V184.203ZM84.314 181.203C85.1425 181.203 85.814 181.875 85.814 182.703C85.814 183.532 85.1425 184.203 84.314 184.203V181.203ZM92.5228 184.203C91.6943 184.203 91.0228 183.532 91.0228 182.703C91.0228 181.875 91.6943 181.203 92.5228 181.203V184.203ZM98.6793 181.203C99.5077 181.203 100.179 181.875 100.179 182.703C100.179 183.532 99.5077 184.203 98.6793 184.203V181.203ZM106.888 184.203C106.06 184.203 105.388 183.532 105.388 182.703C105.388 181.875 106.06 181.203 106.888 181.203V184.203ZM113.045 181.203C113.873 181.203 114.545 181.875 114.545 182.703C114.545 183.532 113.873 184.203 113.045 184.203V181.203ZM121.253 184.203C120.425 184.203 119.753 183.532 119.753 182.703C119.753 181.875 120.425 181.203 121.253 181.203V184.203ZM127.41 181.203C128.238 181.203 128.91 181.875 128.91 182.703C128.91 183.532 128.238 184.203 127.41 184.203V181.203ZM135.619 184.203C134.79 184.203 134.119 183.532 134.119 182.703C134.119 181.875 134.79 181.203 135.619 181.203V184.203ZM141.775 181.203C142.603 181.203 143.275 181.875 143.275 182.703C143.275 183.532 142.603 184.203 141.775 184.203V181.203ZM149.984 184.203C149.155 184.203 148.484 183.532 148.484 182.703C148.484 181.875 149.155 181.203 149.984 181.203V184.203ZM156.057 181.196C156.886 181.194 157.559 181.864 157.561 182.693C157.563 183.521 156.893 184.194 156.065 184.196L156.057 181.196ZM164.062 184.177C163.233 184.179 162.56 183.509 162.558 182.681C162.556 181.852 163.226 181.179 164.055 181.177L164.062 184.177ZM170.053 181.163C170.881 181.161 171.554 181.831 171.556 182.659C171.558 183.488 170.888 184.161 170.06 184.163L170.053 181.163ZM178.057 184.144C177.229 184.146 176.555 183.476 176.553 182.648C176.551 181.819 177.221 181.146 178.05 181.144L178.057 184.144ZM184.048 181.13C184.876 181.128 185.549 181.798 185.551 182.626C185.553 183.455 184.883 184.128 184.055 184.13L184.048 181.13ZM192.052 184.111C191.224 184.113 190.551 183.443 190.549 182.614C190.547 181.786 191.217 181.113 192.045 181.111L192.052 184.111ZM198.043 181.097C198.871 181.095 199.545 181.765 199.547 182.593C199.548 183.422 198.878 184.095 198.05 184.097L198.043 181.097ZM206.047 184.078C205.219 184.08 204.546 183.41 204.544 182.581C204.542 181.753 205.212 181.08 206.04 181.078L206.047 184.078ZM212.038 181.063C212.867 181.062 213.54 181.732 213.542 182.56C213.544 183.388 212.874 184.062 212.045 184.063L212.038 181.063ZM220.042 184.045C219.214 184.046 218.541 183.377 218.539 182.548C218.537 181.72 219.207 181.047 220.035 181.045L220.042 184.045ZM226.033 181.03C226.862 181.028 227.535 181.698 227.537 182.527C227.539 183.355 226.869 184.028 226.04 184.03L226.033 181.03ZM234.038 184.011C233.209 184.013 232.536 183.343 232.534 182.515C232.532 181.687 233.202 181.013 234.031 181.011L234.038 184.011ZM240.028 180.997C240.857 180.995 241.53 181.665 241.532 182.494C241.534 183.322 240.864 183.995 240.036 183.997L240.028 180.997ZM248.033 183.978C247.204 183.98 246.531 183.31 246.529 182.482C246.527 181.653 247.197 180.98 248.026 180.978L248.033 183.978ZM254.024 180.964C254.852 180.962 255.525 181.632 255.527 182.46C255.529 183.289 254.859 183.962 254.031 183.964L254.024 180.964ZM262.028 183.945C261.2 183.947 260.526 183.277 260.524 182.449C260.522 181.62 261.192 180.947 262.021 180.945L262.028 183.945ZM268.019 180.931C268.847 180.929 269.52 181.599 269.522 182.427C269.524 183.256 268.854 183.929 268.026 183.931L268.019 180.931ZM276.023 183.912C275.195 183.914 274.522 183.244 274.52 182.415C274.518 181.587 275.188 180.914 276.016 180.912L276.023 183.912ZM282.014 180.898C282.842 180.896 283.516 181.566 283.518 182.394C283.519 183.223 282.85 183.896 282.021 183.898L282.014 180.898ZM290.018 183.879C289.19 183.881 288.517 183.211 288.515 182.382C288.513 181.554 289.183 180.881 290.011 180.879L290.018 183.879ZM296.009 180.865C296.838 180.863 297.511 181.533 297.513 182.361C297.515 183.189 296.845 183.863 296.016 183.865L296.009 180.865ZM304.013 183.846C303.185 183.848 302.512 183.178 302.51 182.349C302.508 181.521 303.178 180.848 304.006 180.846L304.013 183.846ZM310.004 180.831C310.833 180.829 311.506 181.499 311.508 182.328C311.51 183.156 310.84 183.829 310.011 183.831L310.004 180.831ZM318.009 183.812C317.18 183.814 316.507 183.144 316.505 182.316C316.503 181.488 317.173 180.814 318.002 180.812L318.009 183.812ZM323.999 180.798C324.828 180.796 325.501 181.466 325.503 182.295C325.505 183.123 324.835 183.796 324.007 183.798L323.999 180.798ZM332.004 183.779C331.175 183.781 330.502 183.111 330.5 182.283C330.498 181.454 331.168 180.781 331.997 180.779L332.004 183.779ZM337.995 180.765C338.823 180.763 339.496 181.433 339.498 182.262C339.5 183.09 338.83 183.763 338.002 183.765L337.995 180.765ZM345.999 183.746C345.171 183.748 344.497 183.078 344.495 182.25C344.493 181.421 345.163 180.748 345.992 180.746L345.999 183.746ZM351.99 180.732C352.818 180.73 353.491 181.4 353.493 182.228C353.495 183.057 352.825 183.73 351.997 183.732L351.99 180.732ZM359.994 183.713C359.166 183.715 358.493 183.045 358.491 182.217C358.489 181.388 359.159 180.715 359.987 180.713L359.994 183.713ZM365.985 180.699C366.813 180.697 367.487 181.367 367.489 182.195C367.49 183.024 366.821 183.697 365.992 183.699L365.985 180.699ZM373.989 183.68C373.161 183.682 372.488 183.012 372.486 182.183C372.484 181.355 373.154 180.682 373.982 180.68L373.989 183.68ZM379.98 180.666C380.809 180.664 381.482 181.334 381.484 182.162C381.486 182.991 380.816 183.664 379.987 183.666L379.98 180.666ZM387.985 183.647C387.156 183.649 386.483 182.979 386.481 182.15C386.479 181.322 387.149 180.649 387.977 180.647L387.985 183.647ZM393.975 180.633C394.804 180.631 395.477 181.301 395.479 182.129C395.481 182.957 394.811 183.631 393.982 183.633L393.975 180.633ZM401.98 183.614C401.151 183.616 400.478 182.946 400.476 182.117C400.474 181.289 401.144 180.616 401.973 180.614L401.98 183.614ZM407.971 180.599C408.799 180.597 409.472 181.267 409.474 182.096C409.476 182.924 408.806 183.597 407.978 183.599L407.971 180.599ZM415.975 183.58C415.146 183.582 414.473 182.912 414.471 182.084C414.469 181.256 415.139 180.582 415.968 180.58L415.975 183.58ZM421.966 180.566C422.794 180.564 423.467 181.234 423.469 182.063C423.471 182.891 422.801 183.564 421.973 183.566L421.966 180.566ZM429.97 183.547C429.142 183.549 428.468 182.879 428.466 182.051C428.464 181.222 429.134 180.549 429.963 180.547L429.97 183.547ZM435.961 180.533C436.789 180.531 437.462 181.201 437.464 182.03C437.466 182.858 436.796 183.531 435.968 183.533L435.961 180.533ZM443.965 183.514C443.137 183.516 442.464 182.846 442.462 182.018C442.46 181.189 443.13 180.516 443.958 180.514L443.965 183.514ZM449.956 180.5C450.784 180.498 451.458 181.168 451.46 181.996C451.462 182.825 450.792 183.498 449.963 183.5L449.956 180.5ZM457.96 183.481C457.132 183.483 456.459 182.813 456.457 181.985C456.455 181.156 457.125 180.483 457.953 180.481L457.96 183.481ZM463.951 180.467C464.78 180.465 465.453 181.135 465.455 181.963C465.457 182.792 464.787 183.465 463.958 183.467L463.951 180.467ZM471.956 183.448C471.127 183.45 470.454 182.78 470.452 181.951C470.45 181.123 471.12 180.45 471.948 180.448L471.956 183.448ZM32.7041 249.037V247.537H32.8397V249.037V250.537H32.7041V249.037ZM33.2013 249.037V247.537H33.3369V249.037V250.537H33.2013V249.037ZM33.3369 249.037V247.537C34.3951 247.537 35.4314 247.448 36.4391 247.278L36.6887 248.757L36.9382 250.237C35.7663 250.434 34.563 250.537 33.3369 250.537V249.037ZM44.9111 245.35L44.0421 244.127C45.7377 242.922 47.2217 241.438 48.4269 239.742L49.6495 240.611L50.8721 241.48C49.4724 243.45 47.7494 245.173 45.7801 246.572L44.9111 245.35ZM53.0573 232.389L51.5782 232.139C51.7482 231.132 51.8369 230.095 51.8369 229.037H53.3369H54.8369C54.8369 230.263 54.7341 231.466 54.5364 232.638L53.0573 232.389ZM53.3369 229.037H51.8369V226.245H53.3369H54.8369V229.037H53.3369ZM53.3369 218.799H51.8369V213.215H53.3369H54.8369V218.799H53.3369ZM53.3369 205.769H51.8369V200.185H53.3369H54.8369V205.769H53.3369ZM53.3369 192.739H51.8369V189.947H53.3369H54.8369V192.739H53.3369ZM53.3369 189.947H54.8369V191.294H53.3369H51.8369V189.947H53.3369ZM53.3369 194.889H54.8369V196.237H53.3369H51.8369V194.889H53.3369ZM53.3369 196.237H51.8369C51.8369 195.38 51.9087 194.539 52.047 193.719L53.5261 193.969L55.0052 194.218C54.8946 194.874 54.8369 195.548 54.8369 196.237H53.3369ZM55.8321 188.405L54.6095 187.536C55.5881 186.159 56.7927 184.954 58.1694 183.976L59.0385 185.198L59.9075 186.421C58.8044 187.205 57.8388 188.171 57.0547 189.274L55.8321 188.405ZM64.6024 182.892L64.3529 181.413C65.1725 181.275 66.0137 181.203 66.8705 181.203V182.703V184.203C66.1816 184.203 65.5074 184.261 64.852 184.371L64.6024 182.892ZM66.8705 182.703V181.203H69.9488V182.703V184.203H66.8705V182.703ZM78.1575 182.703V181.203H84.314V182.703V184.203H78.1575V182.703ZM92.5228 182.703V181.203H98.6793V182.703V184.203H92.5228V182.703ZM106.888 182.703V181.203H113.045V182.703V184.203H106.888V182.703ZM121.253 182.703V181.203H127.41V182.703V184.203H121.253V182.703ZM135.619 182.703V181.203H141.775V182.703V184.203H135.619V182.703ZM149.984 182.703V181.203H153.062V182.703V184.203H149.984V182.703ZM153.062 182.703L153.058 181.203L156.057 181.196L156.061 182.696L156.065 184.196L153.066 184.203L153.062 182.703ZM164.058 182.677L164.055 181.177L170.053 181.163L170.056 182.663L170.06 184.163L164.062 184.177L164.058 182.677ZM178.053 182.644L178.05 181.144L184.048 181.13L184.051 182.63L184.055 184.13L178.057 184.144L178.053 182.644ZM192.049 182.611L192.045 181.111L198.043 181.097L198.047 182.597L198.05 184.097L192.052 184.111L192.049 182.611ZM206.044 182.578L206.04 181.078L212.038 181.063L212.042 182.563L212.045 184.063L206.047 184.078L206.044 182.578ZM220.039 182.545L220.035 181.045L226.033 181.03L226.037 182.53L226.04 184.03L220.042 184.045L220.039 182.545ZM234.034 182.511L234.031 181.011L240.028 180.997L240.032 182.497L240.036 183.997L234.038 184.011L234.034 182.511ZM248.029 182.478L248.026 180.978L254.024 180.964L254.027 182.464L254.031 183.964L248.033 183.978L248.029 182.478ZM262.024 182.445L262.021 180.945L268.019 180.931L268.022 182.431L268.026 183.931L262.028 183.945L262.024 182.445ZM276.02 182.412L276.016 180.912L282.014 180.898L282.018 182.398L282.021 183.898L276.023 183.912L276.02 182.412ZM290.015 182.379L290.011 180.879L296.009 180.865L296.013 182.365L296.016 183.865L290.018 183.879L290.015 182.379ZM304.01 182.346L304.006 180.846L310.004 180.831L310.008 182.331L310.011 183.831L304.013 183.846L304.01 182.346ZM318.005 182.312L318.002 180.812L323.999 180.798L324.003 182.298L324.007 183.798L318.009 183.812L318.005 182.312ZM332 182.279L331.997 180.779L337.995 180.765L337.998 182.265L338.002 183.765L332.004 183.779L332 182.279ZM345.995 182.246L345.992 180.746L351.99 180.732L351.993 182.232L351.997 183.732L345.999 183.746L345.995 182.246ZM359.991 182.213L359.987 180.713L365.985 180.699L365.989 182.199L365.992 183.699L359.994 183.713L359.991 182.213ZM373.986 182.18L373.982 180.68L379.98 180.666L379.984 182.166L379.987 183.666L373.989 183.68L373.986 182.18ZM387.981 182.147L387.977 180.647L393.975 180.633L393.979 182.133L393.982 183.633L387.985 183.647L387.981 182.147ZM401.976 182.114L401.973 180.614L407.971 180.599L407.974 182.099L407.978 183.599L401.98 183.614L401.976 182.114ZM415.971 182.08L415.968 180.58L421.966 180.566L421.969 182.066L421.973 183.566L415.975 183.58L415.971 182.08ZM429.966 182.047L429.963 180.547L435.961 180.533L435.964 182.033L435.968 183.533L429.97 183.547L429.966 182.047ZM443.962 182.014L443.958 180.514L449.956 180.5L449.96 182L449.963 183.5L443.965 183.514L443.962 182.014ZM457.957 181.981L457.953 180.481L463.951 180.467L463.955 181.967L463.958 183.467L457.96 183.481L457.957 181.981ZM471.952 181.948L471.948 180.448L474.947 180.441L474.951 181.941L474.955 183.441L471.956 183.448L471.952 181.948Z" fill="#C1A265" fill-opacity="0.7"/>
<path d="M584.938 182.703L584.934 184.203H584.938V182.703ZM263.053 180.441C262.224 180.439 261.551 181.109 261.549 181.937C261.547 182.766 262.217 183.439 263.045 183.441L263.053 180.441ZM683.163 196.237C683.163 197.065 683.835 197.737 684.663 197.737C685.492 197.737 686.163 197.065 686.163 196.237H683.163ZM683.163 196.237C683.163 197.065 683.835 197.737 684.663 197.737C685.492 197.737 686.163 197.065 686.163 196.237H683.163ZM705.16 247.537C704.332 247.537 703.66 248.209 703.66 249.037C703.66 249.866 704.332 250.537 705.16 250.537V247.537ZM704.799 250.537C705.627 250.537 706.299 249.866 706.299 249.037C706.299 248.209 705.627 247.537 704.799 247.537V250.537ZM701.561 247.278C700.744 247.141 699.97 247.691 699.832 248.508C699.694 249.325 700.245 250.099 701.062 250.237L701.561 247.278ZM692.22 246.572C692.895 247.052 693.832 246.894 694.312 246.219C694.791 245.544 694.633 244.607 693.958 244.127L692.22 246.572ZM689.573 239.742C689.093 239.067 688.157 238.909 687.481 239.389C686.806 239.869 686.648 240.805 687.128 241.48L689.573 239.742ZM683.464 232.638C683.601 233.455 684.375 234.006 685.192 233.868C686.009 233.73 686.56 232.956 686.422 232.139L683.464 232.638ZM686.163 226.245C686.163 225.417 685.492 224.745 684.663 224.745C683.835 224.745 683.163 225.417 683.163 226.245H686.163ZM683.163 218.799C683.163 219.628 683.835 220.299 684.663 220.299C685.492 220.299 686.163 219.628 686.163 218.799H683.163ZM686.163 213.215C686.163 212.386 685.492 211.715 684.663 211.715C683.835 211.715 683.163 212.386 683.163 213.215H686.163ZM683.163 205.769C683.163 206.597 683.835 207.269 684.663 207.269C685.492 207.269 686.163 206.597 686.163 205.769H683.163ZM686.163 200.185C686.163 199.356 685.492 198.685 684.663 198.685C683.835 198.685 683.163 199.356 683.163 200.185H686.163ZM683.163 192.739C683.163 193.567 683.835 194.239 684.663 194.239C685.492 194.239 686.163 193.567 686.163 192.739H683.163ZM683.163 191.294C683.163 192.123 683.835 192.794 684.663 192.794C685.492 192.794 686.163 192.123 686.163 191.294H683.163ZM686.163 194.889C686.163 194.06 685.492 193.389 684.663 193.389C683.835 193.389 683.163 194.06 683.163 194.889H686.163ZM685.953 193.719C685.815 192.902 685.041 192.352 684.224 192.49C683.407 192.627 682.857 193.401 682.995 194.218L685.953 193.719ZM680.945 189.274C681.425 189.949 682.362 190.107 683.037 189.627C683.712 189.147 683.87 188.211 683.391 187.536L680.945 189.274ZM679.831 183.976C679.155 183.496 678.219 183.654 677.739 184.329C677.259 185.005 677.417 185.941 678.092 186.421L679.831 183.976ZM673.148 184.371C673.965 184.509 674.739 183.959 674.877 183.142C675.014 182.325 674.464 181.551 673.647 181.413L673.148 184.371ZM668.051 181.203C667.223 181.203 666.551 181.875 666.551 182.703C666.551 183.532 667.223 184.203 668.051 184.203V181.203ZM659.842 184.203C660.671 184.203 661.342 183.532 661.342 182.703C661.342 181.875 660.671 181.203 659.842 181.203V184.203ZM653.686 181.203C652.858 181.203 652.186 181.875 652.186 182.703C652.186 183.532 652.858 184.203 653.686 184.203V181.203ZM645.477 184.203C646.306 184.203 646.977 183.532 646.977 182.703C646.977 181.875 646.306 181.203 645.477 181.203V184.203ZM639.321 181.203C638.492 181.203 637.821 181.875 637.821 182.703C637.821 183.532 638.492 184.203 639.321 184.203V181.203ZM631.112 184.203C631.94 184.203 632.612 183.532 632.612 182.703C632.612 181.875 631.94 181.203 631.112 181.203V184.203ZM624.955 181.203C624.127 181.203 623.455 181.875 623.455 182.703C623.455 183.532 624.127 184.203 624.955 184.203V181.203ZM616.747 184.203C617.575 184.203 618.247 183.532 618.247 182.703C618.247 181.875 617.575 181.203 616.747 181.203V184.203ZM610.59 181.203C609.762 181.203 609.09 181.875 609.09 182.703C609.09 183.532 609.762 184.203 610.59 184.203V181.203ZM602.381 184.203C603.21 184.203 603.881 183.532 603.881 182.703C603.881 181.875 603.21 181.203 602.381 181.203V184.203ZM596.225 181.203C595.397 181.203 594.725 181.875 594.725 182.703C594.725 183.532 595.397 184.203 596.225 184.203V181.203ZM588.016 184.203C588.845 184.203 589.516 183.532 589.516 182.703C589.516 181.875 588.845 181.203 588.016 181.203V184.203ZM581.943 181.196C581.114 181.194 580.441 181.864 580.439 182.693C580.437 183.521 581.107 184.194 581.935 184.196L581.943 181.196ZM573.938 184.177C574.767 184.179 575.44 183.509 575.442 182.681C575.444 181.852 574.774 181.179 573.945 181.177L573.938 184.177ZM567.947 181.163C567.119 181.161 566.446 181.831 566.444 182.659C566.442 183.488 567.112 184.161 567.94 184.163L567.947 181.163ZM559.943 184.144C560.771 184.146 561.445 183.476 561.447 182.648C561.449 181.819 560.779 181.146 559.95 181.144L559.943 184.144ZM553.952 181.13C553.124 181.128 552.451 181.798 552.449 182.626C552.447 183.455 553.117 184.128 553.945 184.13L553.952 181.13ZM545.948 184.111C546.776 184.113 547.449 183.443 547.451 182.614C547.453 181.786 546.783 181.113 545.955 181.111L545.948 184.111ZM539.957 181.097C539.129 181.095 538.455 181.765 538.453 182.593C538.452 183.422 539.122 184.095 539.95 184.097L539.957 181.097ZM531.953 184.078C532.781 184.08 533.454 183.41 533.456 182.581C533.458 181.753 532.788 181.08 531.96 181.078L531.953 184.078ZM525.962 181.063C525.133 181.062 524.46 181.732 524.458 182.56C524.456 183.388 525.126 184.062 525.955 184.063L525.962 181.063ZM517.958 184.045C518.786 184.046 519.459 183.377 519.461 182.548C519.463 181.72 518.793 181.047 517.965 181.045L517.958 184.045ZM511.967 181.03C511.138 181.028 510.465 181.698 510.463 182.527C510.461 183.355 511.131 184.028 511.96 184.03L511.967 181.03ZM503.962 184.011C504.791 184.013 505.464 183.343 505.466 182.515C505.468 181.687 504.798 181.013 503.969 181.011L503.962 184.011ZM497.972 180.997C497.143 180.995 496.47 181.665 496.468 182.494C496.466 183.322 497.136 183.995 497.964 183.997L497.972 180.997ZM489.967 183.978C490.796 183.98 491.469 183.31 491.471 182.482C491.473 181.653 490.803 180.98 489.974 180.978L489.967 183.978ZM483.976 180.964C483.148 180.962 482.475 181.632 482.473 182.46C482.471 183.289 483.141 183.962 483.969 183.964L483.976 180.964ZM475.972 183.945C476.8 183.947 477.474 183.277 477.476 182.449C477.478 181.62 476.808 180.947 475.979 180.945L475.972 183.945ZM469.981 180.931C469.153 180.929 468.48 181.599 468.478 182.427C468.476 183.256 469.146 183.929 469.974 183.931L469.981 180.931ZM461.977 183.912C462.805 183.914 463.478 183.244 463.48 182.415C463.482 181.587 462.812 180.914 461.984 180.912L461.977 183.912ZM455.986 180.898C455.158 180.896 454.484 181.566 454.482 182.394C454.481 183.223 455.15 183.896 455.979 183.898L455.986 180.898ZM447.982 183.879C448.81 183.881 449.483 183.211 449.485 182.382C449.487 181.554 448.817 180.881 447.989 180.879L447.982 183.879ZM441.991 180.865C441.162 180.863 440.489 181.533 440.487 182.361C440.485 183.189 441.155 183.863 441.984 183.865L441.991 180.865ZM433.987 183.846C434.815 183.848 435.488 183.178 435.49 182.349C435.492 181.521 434.822 180.848 433.994 180.846L433.987 183.846ZM427.996 180.831C427.167 180.829 426.494 181.499 426.492 182.328C426.49 183.156 427.16 183.829 427.989 183.831L427.996 180.831ZM419.991 183.812C420.82 183.814 421.493 183.144 421.495 182.316C421.497 181.488 420.827 180.814 419.998 180.812L419.991 183.812ZM414.001 180.798C413.172 180.796 412.499 181.466 412.497 182.295C412.495 183.123 413.165 183.796 413.993 183.798L414.001 180.798ZM405.996 183.779C406.825 183.781 407.498 183.111 407.5 182.283C407.502 181.454 406.832 180.781 406.003 180.779L405.996 183.779ZM400.005 180.765C399.177 180.763 398.504 181.433 398.502 182.262C398.5 183.09 399.17 183.763 399.998 183.765L400.005 180.765ZM392.001 183.746C392.829 183.748 393.503 183.078 393.505 182.25C393.507 181.421 392.837 180.748 392.008 180.746L392.001 183.746ZM386.01 180.732C385.182 180.73 384.509 181.4 384.507 182.228C384.505 183.057 385.175 183.73 386.003 183.732L386.01 180.732ZM378.006 183.713C378.834 183.715 379.507 183.045 379.509 182.217C379.511 181.388 378.841 180.715 378.013 180.713L378.006 183.713ZM372.015 180.699C371.187 180.697 370.513 181.367 370.511 182.195C370.51 183.024 371.179 183.697 372.008 183.699L372.015 180.699ZM364.011 183.68C364.839 183.682 365.512 183.012 365.514 182.183C365.516 181.355 364.846 180.682 364.018 180.68L364.011 183.68ZM358.02 180.666C357.191 180.664 356.518 181.334 356.516 182.162C356.514 182.991 357.184 183.664 358.013 183.666L358.02 180.666ZM350.015 183.647C350.844 183.649 351.517 182.979 351.519 182.15C351.521 181.322 350.851 180.649 350.023 180.647L350.015 183.647ZM344.025 180.633C343.196 180.631 342.523 181.301 342.521 182.129C342.519 182.957 343.189 183.631 344.018 183.633L344.025 180.633ZM336.02 183.614C336.849 183.616 337.522 182.946 337.524 182.117C337.526 181.289 336.856 180.616 336.027 180.614L336.02 183.614ZM330.029 180.599C329.201 180.597 328.528 181.267 328.526 182.096C328.524 182.924 329.194 183.597 330.022 183.599L330.029 180.599ZM322.025 183.58C322.854 183.582 323.527 182.912 323.529 182.084C323.531 181.256 322.861 180.582 322.032 180.58L322.025 183.58ZM316.034 180.566C315.206 180.564 314.533 181.234 314.531 182.063C314.529 182.891 315.199 183.564 316.027 183.566L316.034 180.566ZM308.03 183.547C308.858 183.549 309.532 182.879 309.534 182.051C309.536 181.222 308.866 180.549 308.037 180.547L308.03 183.547ZM302.039 180.533C301.211 180.531 300.538 181.201 300.536 182.03C300.534 182.858 301.204 183.531 302.032 183.533L302.039 180.533ZM294.035 183.514C294.863 183.516 295.536 182.846 295.538 182.018C295.54 181.189 294.87 180.516 294.042 180.514L294.035 183.514ZM288.044 180.5C287.216 180.498 286.542 181.168 286.54 181.996C286.538 182.825 287.208 183.498 288.037 183.5L288.044 180.5ZM280.04 183.481C280.868 183.483 281.541 182.813 281.543 181.985C281.545 181.156 280.875 180.483 280.047 180.481L280.04 183.481ZM274.049 180.467C273.22 180.465 272.547 181.135 272.545 181.963C272.543 182.792 273.213 183.465 274.042 183.467L274.049 180.467ZM266.044 183.448C266.873 183.45 267.546 182.78 267.548 181.951C267.55 181.123 266.88 180.45 266.052 180.448L266.044 183.448ZM705.296 249.037V247.537H705.16V249.037V250.537H705.296V249.037ZM704.799 249.037V247.537H704.663V249.037V250.537H704.799V249.037ZM704.663 249.037V247.537C703.605 247.537 702.569 247.448 701.561 247.278L701.311 248.757L701.062 250.237C702.234 250.434 703.437 250.537 704.663 250.537V249.037ZM693.089 245.35L693.958 244.127C692.262 242.922 690.778 241.438 689.573 239.742L688.35 240.611L687.128 241.48C688.528 243.45 690.251 245.173 692.22 246.572L693.089 245.35ZM684.943 232.389L686.422 232.139C686.252 231.132 686.163 230.095 686.163 229.037H684.663H683.163C683.163 230.263 683.266 231.466 683.464 232.638L684.943 232.389ZM684.663 229.037H686.163V226.245H684.663H683.163V229.037H684.663ZM684.663 218.799H686.163V213.215H684.663H683.163V218.799H684.663ZM684.663 205.769H686.163V200.185H684.663H683.163V205.769H684.663ZM684.663 192.739H686.163V189.947H684.663H683.163V192.739H684.663ZM684.663 189.947H683.163V191.294H684.663H686.163V189.947H684.663ZM684.663 194.889H683.163V196.237H684.663H686.163V194.889H684.663ZM684.663 196.237H686.163C686.163 195.38 686.091 194.539 685.953 193.719L684.474 193.969L682.995 194.218C683.105 194.874 683.163 195.548 683.163 196.237H684.663ZM682.168 188.405L683.391 187.536C682.412 186.159 681.207 184.954 679.831 183.976L678.962 185.198L678.092 186.421C679.196 187.205 680.161 188.171 680.945 189.274L682.168 188.405ZM673.398 182.892L673.647 181.413C672.828 181.275 671.986 181.203 671.129 181.203V182.703V184.203C671.818 184.203 672.493 184.261 673.148 184.371L673.398 182.892ZM671.129 182.703V181.203H668.051V182.703V184.203H671.129V182.703ZM659.842 182.703V181.203H653.686V182.703V184.203H659.842V182.703ZM645.477 182.703V181.203H639.321V182.703V184.203H645.477V182.703ZM631.112 182.703V181.203H624.955V182.703V184.203H631.112V182.703ZM616.747 182.703V181.203H610.59V182.703V184.203H616.747V182.703ZM602.381 182.703V181.203H596.225V182.703V184.203H602.381V182.703ZM588.016 182.703V181.203H584.938V182.703V184.203H588.016V182.703ZM584.938 182.703L584.942 181.203L581.943 181.196L581.939 182.696L581.935 184.196L584.934 184.203L584.938 182.703ZM573.942 182.677L573.945 181.177L567.947 181.163L567.944 182.663L567.94 184.163L573.938 184.177L573.942 182.677ZM559.947 182.644L559.95 181.144L553.952 181.13L553.949 182.63L553.945 184.13L559.943 184.144L559.947 182.644ZM545.951 182.611L545.955 181.111L539.957 181.097L539.953 182.597L539.95 184.097L545.948 184.111L545.951 182.611ZM531.956 182.578L531.96 181.078L525.962 181.063L525.958 182.563L525.955 184.063L531.953 184.078L531.956 182.578ZM517.961 182.545L517.965 181.045L511.967 181.03L511.963 182.53L511.96 184.03L517.958 184.045L517.961 182.545ZM503.966 182.511L503.969 181.011L497.972 180.997L497.968 182.497L497.964 183.997L503.962 184.011L503.966 182.511ZM489.971 182.478L489.974 180.978L483.976 180.964L483.973 182.464L483.969 183.964L489.967 183.978L489.971 182.478ZM475.976 182.445L475.979 180.945L469.981 180.931L469.978 182.431L469.974 183.931L475.972 183.945L475.976 182.445ZM461.98 182.412L461.984 180.912L455.986 180.898L455.982 182.398L455.979 183.898L461.977 183.912L461.98 182.412ZM447.985 182.379L447.989 180.879L441.991 180.865L441.987 182.365L441.984 183.865L447.982 183.879L447.985 182.379ZM433.99 182.346L433.994 180.846L427.996 180.831L427.992 182.331L427.989 183.831L433.987 183.846L433.99 182.346ZM419.995 182.312L419.998 180.812L414.001 180.798L413.997 182.298L413.993 183.798L419.991 183.812L419.995 182.312ZM406 182.279L406.003 180.779L400.005 180.765L400.002 182.265L399.998 183.765L405.996 183.779L406 182.279ZM392.005 182.246L392.008 180.746L386.01 180.732L386.007 182.232L386.003 183.732L392.001 183.746L392.005 182.246ZM378.009 182.213L378.013 180.713L372.015 180.699L372.011 182.199L372.008 183.699L378.006 183.713L378.009 182.213ZM364.014 182.18L364.018 180.68L358.02 180.666L358.016 182.166L358.013 183.666L364.011 183.68L364.014 182.18ZM350.019 182.147L350.023 180.647L344.025 180.633L344.021 182.133L344.018 183.633L350.015 183.647L350.019 182.147ZM336.024 182.114L336.027 180.614L330.029 180.599L330.026 182.099L330.022 183.599L336.02 183.614L336.024 182.114ZM322.029 182.08L322.032 180.58L316.034 180.566L316.031 182.066L316.027 183.566L322.025 183.58L322.029 182.08ZM308.034 182.047L308.037 180.547L302.039 180.533L302.036 182.033L302.032 183.533L308.03 183.547L308.034 182.047ZM294.038 182.014L294.042 180.514L288.044 180.5L288.04 182L288.037 183.5L294.035 183.514L294.038 182.014ZM280.043 181.981L280.047 180.481L274.049 180.467L274.045 181.967L274.042 183.467L280.04 183.481L280.043 181.981ZM266.048 181.948L266.052 180.448L263.053 180.441L263.049 181.941L263.045 183.441L266.044 183.448L266.048 181.948Z" fill="#C1A265" fill-opacity="0.7"/>
<path d="M0 2H23.9123H88.9492C100.089 2 109.082 11.1016 108.948 22.2405L108.618 49.6537L108.788 57.8952C109.012 68.7781 117.898 77.4834 128.784 77.4834H219.141H226.625C234.837 77.4834 241.493 84.14 241.493 92.3514V92.3514V177.355C241.493 179.888 243.546 181.94 246.078 181.94V181.94" stroke="#C1A265" stroke-opacity="0.7" stroke-width="3" stroke-dasharray="6 8"/>
<path d="M738 2H714.088H649.051C637.911 2 628.918 11.1016 629.052 22.2405L629.382 49.6537L629.212 57.8952C628.988 68.7781 620.102 77.4834 609.216 77.4834H518.859H511.375C503.163 77.4834 496.507 84.14 496.507 92.3514V92.3514V177.355C496.507 179.888 494.454 181.94 491.922 181.94V181.94" stroke="#C1A265" stroke-opacity="0.7" stroke-width="3" stroke-dasharray="6 8"/>
<path d="M0.530273 362H24.4426H89.4794C100.619 362 109.612 352.898 109.478 341.759L109.148 314.346L109.318 306.105C109.542 295.222 118.429 286.517 129.314 286.517H219.029H226.513C234.725 286.517 241.381 279.86 241.381 271.649V271.649V186.645C241.381 184.112 243.434 182.06 245.966 182.06V182.06" stroke="#C1A265" stroke-opacity="0.7" stroke-width="3" stroke-dasharray="6 8"/>
<path d="M737.47 362H713.557H648.521C637.381 362 628.388 352.898 628.522 341.759L628.852 314.346L628.682 306.105C628.458 295.222 619.571 286.517 608.686 286.517H518.971H511.487C503.275 286.517 496.619 279.86 496.619 271.649V271.649V186.645C496.619 184.112 494.566 182.06 492.034 182.06V182.06" stroke="#C1A265" stroke-opacity="0.7" stroke-width="3" stroke-dasharray="6 8"/>
</svg>
