<svg width="766" height="280" viewBox="0 0 766 280" fill="none" xmlns="http://www.w3.org/2000/svg">
<path d="M91.9451 262.198C95.8043 265.083 99.1353 264.668 102.813 262.29C121.969 249.902 141.207 237.64 160.462 225.405C163.139 223.705 164.254 221.563 164.246 218.395C164.13 169.909 164.039 121.422 164.104 72.9362C164.11 68.2863 161.334 66.0486 158.204 63.8145C142.886 52.8806 127.536 41.9921 112.194 31.0922C107.578 27.8126 102.99 24.491 98.315 21.2978C95.2837 19.2275 93.6697 20.1901 93.6732 23.8453C93.6997 51.1711 93.7483 78.4968 93.736 105.823C93.7346 108.813 95.32 110.431 97.8404 111.414C110.093 116.192 121.855 122.203 134.434 126.128C136.861 126.885 137.611 127.972 137.611 130.284C137.604 158.443 137.596 186.602 137.721 214.76C137.738 218.677 135.579 218.957 132.613 218.957C111.119 218.955 89.6242 218.911 68.1314 219.083C46.8128 219.253 25.4856 218.493 4.17766 219.562C0.128012 219.765 0.481451 217.113 0.46636 214.637C0.374945 199.642 0.3104 184.647 0.277945 169.652C0.204016 135.495 0.226157 101.338 0.00040279 67.1828C-0.0271242 63.0188 1.35445 60.5213 4.7019 58.1755C31.5628 39.3519 58.3714 20.4513 85.0136 1.3203C88.6871 -1.31758 90.7259 0.517356 93.2963 2.31502C118.683 20.0695 143.924 38.0391 169.569 55.4123C175.117 59.1705 176.878 62.9839 176.881 69.5055C176.908 120.65 177.295 171.796 177.783 222.939C177.829 227.85 176.402 230.643 172.107 233.296C148.445 247.913 124.988 262.865 101.565 277.863C97.9685 280.166 95.2935 280.25 91.7178 277.68C75.4911 266.019 59.0692 254.628 42.6932 243.175C41.0978 242.059 39.9426 240.865 39.9847 238.75C40.0564 235.151 40.0044 231.55 40.0044 226.099C58.0235 238.625 74.8307 250.308 91.9451 262.198ZM54.499 97.4612C52.7893 99.572 51.5967 101.803 51.6023 104.691C51.6657 137.173 51.6741 169.656 51.6509 202.138C51.6482 205.932 53.4337 207.63 57.1335 207.595C62.9628 207.539 68.7935 207.442 74.6217 207.512C79.1199 207.567 80.9768 205.207 80.9631 201.021C80.9435 195.032 80.7993 189.042 80.7763 183.052C80.6254 143.747 80.4893 104.442 80.3561 65.1361C80.3166 53.4764 80.3204 41.8165 80.2579 30.157C80.2474 28.2034 80.7169 25.8162 78.6513 24.7119C76.7677 23.7049 75.2935 25.5674 73.7278 26.3938C72.9942 26.781 72.3019 27.2551 71.6217 27.7335C53.3702 40.5736 35.1473 53.4546 16.8501 66.2291C13.8114 68.3507 12.6285 70.8881 12.6493 74.6139C12.7887 99.587 12.8285 124.558 13.3382 149.53C13.695 167.012 13.3571 184.508 13.3697 201.997C13.374 208 14.0006 208.554 20.0202 208.287C23.6776 208.126 27.3306 207.813 30.989 207.736C38.8207 207.571 39.0549 207.432 39.0036 199.44C38.7863 165.633 38.5789 131.825 38.2273 98.0192C38.1887 94.3001 39.2525 91.8804 42.445 89.7664C50.0761 84.7132 57.3209 79.0759 64.9606 74.0366C68.4576 71.73 71.3327 68.2373 75.7006 67.2742C77.3571 69.4999 76.4061 71.741 76.7253 73.8012C77.5954 79.4161 75.4037 83.0738 70.447 85.9734C65.0157 89.1507 60.1087 93.2243 54.499 97.4612ZM94.2585 175.581C94.2741 184.553 94.3085 193.524 94.2959 202.496C94.2909 205.995 95.8133 207.648 99.4566 207.555C105.943 207.39 112.436 207.437 118.926 207.416C123 207.402 125.039 205.509 125.029 201.311C124.977 181.008 124.95 160.705 125.028 140.402C125.039 137.429 123.787 135.833 121.167 134.763C113.931 131.807 106.784 128.632 99.5262 125.732C95.1828 123.997 93.7139 125.028 93.7482 129.794C93.8559 144.766 93.3574 159.746 94.2585 175.581Z" fill="#9B8343"/>
<path d="M271.259 116.617C269.922 118.363 268.904 119.918 267.584 121.15C261.731 126.618 261.69 126.603 268.997 130.588C274.569 133.626 278.22 138.192 279.646 144.353C282.67 157.413 275.265 168.345 260.885 171C245.067 173.92 229.029 171.967 213.086 172.02C211.954 172.024 210.729 171.76 210.441 170.293C210.545 169.96 210.571 169.434 210.747 169.378C219.429 166.619 219.986 159.419 220.024 152.113C220.111 135.804 219.967 119.493 220.054 103.183C220.088 96.6576 219.634 90.6643 211.597 89.0121C210.818 88.8522 210.329 87.9808 210.618 86.1256C214.853 85.7964 219.367 84.9964 223.839 85.1886C234.118 85.6304 244.484 84.8124 254.67 86.722C270.304 89.653 277.195 101.918 271.259 116.617ZM233.716 155.275C233.398 159.826 234.124 163.92 238.516 166.462C245.897 170.734 259.581 166.426 263.224 158.669C269.11 146.137 262.358 132.973 248.786 130.807C245.698 130.314 242.495 130.464 239.345 130.465C235.471 130.465 233.625 132.428 233.693 136.385C233.795 142.367 233.717 148.352 233.716 155.275ZM234.447 92.8519C232.883 102.573 233.962 112.352 233.834 122.104C233.817 123.348 234.61 124.191 235.788 124.73C242.609 127.851 254.532 123.567 257.303 116.863C259.609 111.283 259.595 105.578 257.795 99.841C255.181 91.5093 242.242 87.6531 234.447 92.8519Z" fill="#9B8343"/>
<path d="M709.156 121.825C706.724 118.111 704.546 115.843 699.676 118.045C696.717 119.383 692.793 118.588 689.301 118.743C686.01 118.889 684.114 120.098 684.177 123.895C684.348 134.217 684.135 144.546 684.299 154.868C684.36 158.701 684.798 162.805 688.767 164.815C692.943 166.929 696.811 165.45 700.42 162.925C701.544 162.138 702.506 160.568 704.292 161.514C704.482 161.821 704.861 162.172 704.793 162.362C702.327 169.218 692.568 175.03 684.712 174.361C678.065 173.795 673.304 169.037 672.145 160.37C670.642 149.127 671.773 137.762 671.634 126.451C671.585 122.48 672.065 118.687 666.378 118.315C664.337 118.182 664.095 116.095 665.446 114.975C672.313 109.291 677.384 102.136 682.448 94.9496C682.568 94.7797 683.074 94.8823 683.82 94.8262C685.787 98.4515 684.751 102.512 684.641 106.306C684.5 111.194 686.006 113.146 691.159 112.991C701.957 112.666 712.772 112.855 723.579 112.919C725.413 112.93 727.652 112.102 728.807 114.47C728.709 114.876 728.741 115.35 728.544 115.48C722.476 119.506 722.376 119.537 725.123 126.783C728.703 136.222 732.456 145.596 736.355 155.562C739.097 153.464 739.711 151.025 740.549 148.812C743.141 141.967 745.624 135.08 748.135 128.203C751.253 119.663 751.246 119.661 744.101 115.038C743.964 113.742 744.83 113.105 745.853 113.077C751.509 112.926 757.168 112.882 762.826 112.831C763.889 112.821 764.865 113.186 765.063 114.37C765.264 115.568 764.419 116.157 763.429 116.543C759.287 118.155 757.568 121.733 756.104 125.531C748.8 144.469 741.528 163.419 734.157 182.331C732.036 187.774 729.405 193.001 725.614 197.504C723.22 200.348 720.502 202.866 716.305 202.348C712.221 201.844 709.838 199.304 709.777 195.412C709.713 191.411 712.353 189.754 716.358 189.626C727.577 189.267 734.228 178.437 729.705 168.272C722.871 152.915 716.123 137.52 709.156 121.825Z" fill="#9B8343"/>
<path d="M434.958 120.17C445.244 110.361 456.882 109.46 470.179 114.402C470.751 106.751 470.882 99.8449 470.26 92.9539C469.971 89.7494 465.909 89.659 463.983 86.4204C470.127 83.7455 476.053 81.1651 481.864 78.6353C483.817 80.4912 483.141 82.4286 483.143 84.1554C483.172 108.141 483.215 132.126 483.077 156.111C483.043 162.028 482.879 167.694 490.592 169.507C485.255 173.242 474.335 173.365 470.417 170.148C467.585 167.822 465.405 170.13 463.152 171.193C450.607 177.115 436.341 172.378 429.909 160.065C422.352 145.596 423.845 133.27 434.958 120.17ZM451.723 163.763C453.644 164.258 455.541 165.028 457.491 165.199C464.446 165.811 471.02 161.215 471.086 155.89C471.179 148.253 471.32 140.616 471.351 132.979C471.386 124.598 467.476 119.212 460.191 117.409C451.854 115.346 444.158 118.72 440.467 126.091C435.128 136.753 438.053 156.664 451.723 163.763Z" fill="#9B8343"/>
<path d="M551.673 117.29C562.356 127.015 563.51 139.111 559.937 151.483C556.384 163.789 547.928 172.026 534.758 174.343C525.804 175.918 517.267 174.444 509.012 170.703C505.242 168.994 503.625 166.607 503.677 162.239C503.919 141.933 503.824 121.622 503.814 101.313C503.811 95.8799 505.093 89.8291 496.592 88.0907C496.85 87.6046 497.108 87.1184 497.366 86.6323C503.369 83.923 509.373 81.2137 516.495 78C516.495 91.9948 516.495 104.85 516.495 119.095C528.547 110.86 539.864 108.175 551.673 117.29ZM544.761 161.17C549.322 153.2 549.469 144.723 547.72 136C546.092 127.88 540.15 121.981 532.042 120.558C524.889 119.302 516.535 123.868 516.432 129.379C516.253 139.041 516.273 148.711 516.458 158.373C516.546 162.93 519.012 166.134 523.284 167.952C531.358 171.39 538.112 169.446 544.761 161.17Z" fill="#9B8343"/>
<path d="M290.656 120.774C289.078 119.879 287.412 119.807 286.314 117.562C292.768 115.061 299.267 113.211 306.025 111.655C307.318 114.851 306.597 117.694 306.62 120.445C306.714 131.605 306.605 142.767 306.668 153.927C306.715 162.112 311.034 166.111 319.2 165.731C328.932 165.279 333.995 160.025 333.989 150.385C333.986 144.221 333.799 138.051 334.036 131.897C334.27 125.802 333.945 120.264 326.131 119.038C328.936 115.681 341.051 111.705 345.998 112.133C347.047 114.144 346.504 116.337 346.51 118.455C346.542 129.948 346.519 141.441 346.511 152.934C346.504 162.798 346.501 162.798 353.507 170.534C347.72 172.257 342.067 172.63 336.321 172.268C336.158 172.258 335.913 172.246 335.848 172.145C331.677 165.667 327.432 170.145 323.24 172.078C318.08 174.458 312.606 174.98 307.114 174.288C301.659 173.601 298.216 169.955 296.321 164.985C294.65 160.603 294.049 155.971 294.039 151.28C294.022 143.284 293.973 135.288 294.047 127.293C294.072 124.594 293.494 122.348 290.656 120.774Z" fill="#9B8343"/>
<path d="M399.059 109.039C399.068 106.707 399.105 104.873 399.076 103.04C398.98 97.0555 400.832 90.3706 391.468 87.0979C398.606 83.8913 404.037 81.1539 409.7 79.038C412.357 78.0454 412.517 80.6566 412.388 82.4974C410.801 105.135 411.953 127.8 411.738 150.45C411.67 157.663 409.359 165.947 419.217 170.233C410.014 172.915 401.51 172.573 392.409 170.665C400.905 166.712 399.308 159.556 399.292 153.034C399.256 138.535 399.14 124.037 399.059 109.039Z" fill="#9B8343"/>
<path d="M606.428 146.036C606.51 130.736 606.611 115.936 606.688 101.135C606.716 95.6734 607.94 89.6639 599.951 87.8856C602.853 83.7513 607.018 83.6787 610.31 82.1437C620.193 77.5362 620.034 77.6431 619.514 88.4359C618.362 112.364 619.229 136.315 618.967 160.254C618.915 165.067 622.17 167.536 625.71 169.845C622.17 172.82 606.787 173.205 600.258 170.42C610.131 164.345 605.39 154.77 606.428 146.036Z" fill="#9B8343"/>
<path d="M372.519 112.779C374.517 111.848 376.072 110.79 378.058 111.003C379.97 112.472 379.572 114.607 379.431 116.517C378.52 128.835 379.123 141.167 379.007 153.49C378.913 163.486 378.968 163.487 385.468 169.915C381.743 173.078 364.554 173.351 359.507 169.781C368.35 166.741 366.451 159.479 366.641 153.001C366.842 146.176 366.902 139.345 367.209 132.525C367.462 126.903 367.266 121.644 359.546 119.676C363.847 115.965 368.323 115.012 372.519 112.779Z" fill="#9B8343"/>
<path d="M373.155 86.3819C378.466 88.4024 380.617 91.7464 379.542 95.8006C378.417 100.038 374.835 102.186 370.339 101.32C366.54 100.588 363.775 96.8375 364.351 92.797C365.033 88.0144 368.11 86.0583 373.155 86.3819Z" fill="#9B8343"/>
<path d="M574.72 128.387C575.753 123.105 572.033 121.347 568.049 118.882C574.193 115.08 580.016 112.509 586.143 110.794C587.835 113.018 587.287 115.081 587.295 117.012C587.35 130.339 587.468 143.667 587.285 156.991C587.209 162.548 588.015 167.311 593.951 170.26C585.37 173.08 576.886 172.504 567.758 170.685C577.117 166.141 574.555 158 574.712 150.83C574.872 143.504 574.734 136.171 574.72 128.387Z" fill="#9B8343"/>
<path d="M576.039 100.512C569.652 95.9781 572.409 87.7071 577.151 86.6826C580.465 85.9666 583.546 86.1325 585.764 88.9678C588.053 91.8943 588.119 95.2258 586.133 98.2872C583.738 101.977 580.181 102.048 576.039 100.512Z" fill="#9B8343"/>
<path d="M646.802 112.063C650.791 109.949 651.857 111.457 651.835 115.096C651.756 128.76 651.884 142.427 651.76 156.091C651.708 161.759 651.326 167.375 658.602 169.442C654.079 172.906 637.225 173.259 631.71 169.78C640.864 167.139 639.128 160.027 639.176 153.643C639.23 146.477 639.144 139.311 639.216 132.146C639.268 126.97 640.183 121.49 631.982 119.537C637.397 115.989 641.982 114.228 646.802 112.063Z" fill="#9B8343"/>
<path d="M638.099 98.0513C636.274 91.3693 637.5 87.8812 641.994 86.7032C645.909 85.6772 649.438 86.5171 651.278 90.4254C653.009 94.1032 652.547 97.8455 648.927 100.126C645.152 102.504 641.333 102.185 638.099 98.0513Z" fill="#9B8343"/>
</svg>
