<svg width="178" height="280" viewBox="0 0 178 280" fill="none" xmlns="http://www.w3.org/2000/svg">
<path d="M91.9451 262.198C95.8043 265.083 99.1353 264.668 102.813 262.29C121.969 249.902 141.207 237.64 160.462 225.405C163.139 223.705 164.254 221.563 164.246 218.395C164.13 169.909 164.039 121.422 164.104 72.9362C164.11 68.2863 161.334 66.0486 158.204 63.8145C142.886 52.8806 127.536 41.9921 112.194 31.0922C107.578 27.8126 102.99 24.491 98.315 21.2978C95.2837 19.2275 93.6697 20.1901 93.6732 23.8453C93.6997 51.1711 93.7483 78.4968 93.736 105.823C93.7346 108.813 95.32 110.431 97.8404 111.414C110.093 116.192 121.855 122.203 134.434 126.128C136.861 126.885 137.611 127.972 137.611 130.284C137.604 158.443 137.596 186.602 137.721 214.76C137.738 218.677 135.579 218.957 132.613 218.957C111.119 218.955 89.6242 218.911 68.1314 219.083C46.8128 219.253 25.4856 218.493 4.17766 219.562C0.128012 219.765 0.481451 217.113 0.46636 214.637C0.374945 199.642 0.3104 184.647 0.277945 169.652C0.204016 135.495 0.226157 101.338 0.00040279 67.1828C-0.0271242 63.0188 1.35445 60.5213 4.7019 58.1755C31.5628 39.3519 58.3714 20.4513 85.0136 1.3203C88.6871 -1.31758 90.7259 0.517356 93.2963 2.31502C118.683 20.0695 143.924 38.0391 169.569 55.4123C175.117 59.1705 176.878 62.9839 176.881 69.5055C176.908 120.65 177.295 171.796 177.783 222.939C177.829 227.85 176.402 230.643 172.107 233.296C148.445 247.913 124.988 262.865 101.565 277.863C97.9685 280.166 95.2935 280.25 91.7178 277.68C75.4911 266.019 59.0692 254.628 42.6932 243.175C41.0978 242.059 39.9426 240.865 39.9847 238.75C40.0564 235.151 40.0044 231.55 40.0044 226.099C58.0235 238.625 74.8307 250.308 91.9451 262.198ZM54.499 97.4612C52.7893 99.572 51.5967 101.803 51.6023 104.691C51.6657 137.173 51.6741 169.656 51.6509 202.138C51.6482 205.932 53.4337 207.63 57.1335 207.595C62.9628 207.539 68.7935 207.442 74.6217 207.512C79.1199 207.567 80.9768 205.207 80.9631 201.021C80.9435 195.032 80.7993 189.042 80.7763 183.052C80.6254 143.747 80.4893 104.442 80.3561 65.1361C80.3166 53.4764 80.3204 41.8165 80.2579 30.157C80.2474 28.2034 80.7169 25.8162 78.6513 24.7119C76.7677 23.7049 75.2935 25.5674 73.7278 26.3938C72.9942 26.781 72.3019 27.2551 71.6217 27.7335C53.3702 40.5736 35.1473 53.4546 16.8501 66.2291C13.8114 68.3507 12.6285 70.8881 12.6493 74.6139C12.7887 99.587 12.8285 124.558 13.3382 149.53C13.695 167.012 13.3571 184.508 13.3697 201.997C13.374 208 14.0006 208.554 20.0202 208.287C23.6776 208.126 27.3306 207.813 30.989 207.736C38.8207 207.571 39.0549 207.432 39.0036 199.44C38.7863 165.633 38.5789 131.825 38.2273 98.0192C38.1887 94.3001 39.2525 91.8804 42.445 89.7664C50.0761 84.7132 57.3209 79.0759 64.9606 74.0366C68.4576 71.73 71.3327 68.2373 75.7006 67.2742C77.3571 69.4999 76.4061 71.741 76.7253 73.8012C77.5954 79.4161 75.4037 83.0738 70.447 85.9734C65.0157 89.1507 60.1087 93.2243 54.499 97.4612ZM94.2585 175.581C94.2741 184.553 94.3085 193.524 94.2959 202.496C94.2909 205.995 95.8133 207.648 99.4566 207.555C105.943 207.39 112.436 207.437 118.926 207.416C123 207.402 125.039 205.509 125.029 201.311C124.977 181.008 124.95 160.705 125.028 140.402C125.039 137.429 123.787 135.833 121.167 134.763C113.931 131.807 106.784 128.632 99.5262 125.732C95.1828 123.997 93.7139 125.028 93.7482 129.794C93.8559 144.766 93.3574 159.746 94.2585 175.581Z" fill="#9B8343"/>
</svg>
