<svg width="141" height="199" viewBox="0 0 141 199" fill="none" xmlns="http://www.w3.org/2000/svg">
<path d="M72.9215 186.615C75.9823 188.668 78.6241 188.373 81.5406 186.68C96.7335 177.863 111.991 169.136 127.263 160.428C129.385 159.218 130.269 157.694 130.263 155.439C130.171 120.93 130.099 86.4204 130.15 51.9111C130.155 48.6016 127.953 47.009 125.471 45.4189C113.323 37.6369 101.149 29.8871 88.9811 22.1294C85.3201 19.7952 81.6815 17.4311 77.9735 15.1583C75.5694 13.6849 74.2893 14.37 74.2921 16.9715C74.3131 36.4202 74.3516 55.8688 74.3419 75.3174C74.3408 77.4456 75.5982 78.5973 77.5971 79.2969C87.3143 82.6974 96.6428 86.9761 106.62 89.7692C108.544 90.3079 109.139 91.0821 109.139 92.7275C109.134 112.769 109.127 132.811 109.226 152.852C109.24 155.64 107.527 155.839 105.175 155.839C88.1283 155.838 71.0808 155.806 54.0349 155.928C37.1272 156.05 20.2126 155.508 3.3133 156.269C0.101526 156.414 0.381838 154.527 0.36987 152.764C0.297369 142.092 0.246178 131.419 0.220438 120.747C0.161805 96.4366 0.179365 72.1259 0.000319452 47.8162C-0.0215122 44.8525 1.07422 43.075 3.72907 41.4054C25.0324 28.008 46.2943 14.5558 67.4241 0.939704C70.3376 -0.937762 71.9546 0.36822 73.9932 1.64768C94.1275 14.2841 114.146 27.0737 134.485 39.4388C138.885 42.1136 140.282 44.8277 140.284 49.4693C140.306 85.8708 140.612 122.273 140.999 158.673C141.036 162.168 139.904 164.156 136.498 166.044C117.732 176.448 99.1281 187.09 80.5508 197.765C77.6987 199.403 75.5771 199.463 72.7412 197.634C59.8719 189.334 46.8477 181.227 33.86 173.076C32.5946 172.281 31.6784 171.432 31.7118 169.926C31.7686 167.365 31.7274 164.802 31.7274 160.922C46.0184 169.837 59.3481 178.153 72.9215 186.615ZM43.2231 69.3664C41.8671 70.8687 40.9213 72.4568 40.9257 74.512C40.976 97.6308 40.9827 120.75 40.9643 143.868C40.9621 146.569 42.3782 147.777 45.3125 147.752C49.9357 147.712 54.56 147.643 59.1824 147.693C62.7499 147.732 64.2226 146.053 64.2117 143.074C64.1961 138.81 64.0818 134.548 64.0636 130.285C63.9439 102.31 63.836 74.3345 63.7303 46.3595C63.699 38.0609 63.702 29.7622 63.6524 21.4637C63.6441 20.0733 64.0165 18.3743 62.3782 17.5883C60.8844 16.8716 59.7152 18.1972 58.4734 18.7854C57.8916 19.0609 57.3425 19.3983 56.803 19.7389C42.3278 28.8776 27.8753 38.0454 13.3638 47.1375C10.9538 48.6475 10.0156 50.4534 10.0321 53.1052C10.1427 70.8794 10.1743 88.652 10.5785 106.426C10.8615 118.868 10.5935 131.32 10.6035 143.768C10.6069 148.04 11.1038 148.435 15.878 148.245C18.7787 148.13 21.6758 147.908 24.5774 147.853C30.7887 147.735 30.9744 147.636 30.9337 141.948C30.7614 117.886 30.5969 93.8244 30.3181 69.7635C30.2874 67.1165 31.1311 65.3943 33.663 63.8897C39.7153 60.2932 45.4612 56.2809 51.5202 52.6943C54.2937 51.0526 56.5739 48.5668 60.0381 47.8813C61.3518 49.4654 60.5975 51.0605 60.8507 52.5268C61.5408 56.5231 59.8026 59.1263 55.8714 61.1901C51.5638 63.4515 47.6721 66.3508 43.2231 69.3664ZM74.7563 124.967C74.7687 131.352 74.7959 137.738 74.7859 144.123C74.782 146.613 75.9894 147.79 78.8789 147.724C84.0235 147.606 89.1726 147.64 94.3199 147.625C97.551 147.615 99.1685 146.268 99.1601 143.28C99.1192 128.829 99.0978 114.379 99.1596 99.929C99.1686 97.8128 98.1756 96.6768 96.0975 95.915C90.3587 93.8111 84.69 91.552 78.9341 89.4878C75.4894 88.2525 74.3243 88.9869 74.3515 92.3789C74.437 103.035 74.0417 113.697 74.7563 124.967Z" fill="#C1A265"/>
</svg>
