<svg width="729" height="199" viewBox="0 0 729 199" fill="none" xmlns="http://www.w3.org/2000/svg">
<path d="M72.9215 186.615C75.9823 188.668 78.6241 188.373 81.5406 186.68C96.7335 177.863 111.991 169.136 127.263 160.428C129.385 159.218 130.269 157.694 130.263 155.439C130.171 120.93 130.099 86.4204 130.15 51.9111C130.155 48.6016 127.953 47.009 125.471 45.4189C113.323 37.6369 101.149 29.8871 88.9811 22.1294C85.3201 19.7952 81.6815 17.4311 77.9735 15.1583C75.5694 13.6849 74.2893 14.37 74.2921 16.9715C74.3131 36.4202 74.3516 55.8688 74.3419 75.3174C74.3408 77.4456 75.5982 78.5973 77.5971 79.2969C87.3143 82.6974 96.6428 86.9761 106.62 89.7692C108.544 90.3079 109.139 91.0821 109.139 92.7275C109.134 112.769 109.127 132.811 109.226 152.852C109.24 155.64 107.527 155.839 105.175 155.839C88.1283 155.838 71.0808 155.806 54.0349 155.928C37.1272 156.05 20.2126 155.508 3.3133 156.269C0.101526 156.414 0.381838 154.527 0.36987 152.764C0.297369 142.092 0.246178 131.419 0.220438 120.747C0.161805 96.4366 0.179365 72.1259 0.000319452 47.8162C-0.0215122 44.8525 1.07422 43.075 3.72907 41.4054C25.0324 28.008 46.2943 14.5558 67.4241 0.939704C70.3376 -0.937762 71.9546 0.36822 73.9932 1.64768C94.1275 14.2841 114.146 27.0737 134.485 39.4388C138.885 42.1136 140.282 44.8277 140.284 49.4693C140.306 85.8708 140.612 122.273 140.999 158.673C141.036 162.168 139.904 164.156 136.498 166.044C117.732 176.448 99.1281 187.09 80.5508 197.765C77.6987 199.403 75.5771 199.463 72.7412 197.634C59.8719 189.334 46.8477 181.227 33.86 173.076C32.5946 172.281 31.6784 171.432 31.7118 169.926C31.7686 167.365 31.7274 164.802 31.7274 160.922C46.0184 169.837 59.3481 178.153 72.9215 186.615ZM43.2231 69.3664C41.8671 70.8687 40.9213 72.4568 40.9257 74.512C40.976 97.6308 40.9827 120.75 40.9643 143.868C40.9621 146.569 42.3782 147.777 45.3125 147.752C49.9357 147.712 54.56 147.643 59.1824 147.693C62.7499 147.732 64.2226 146.053 64.2117 143.074C64.1961 138.81 64.0818 134.548 64.0636 130.285C63.9439 102.31 63.836 74.3345 63.7303 46.3595C63.699 38.0609 63.702 29.7622 63.6524 21.4637C63.6441 20.0733 64.0165 18.3743 62.3782 17.5883C60.8844 16.8716 59.7152 18.1972 58.4734 18.7854C57.8916 19.0609 57.3425 19.3983 56.803 19.7389C42.3278 28.8776 27.8753 38.0454 13.3638 47.1375C10.9538 48.6475 10.0156 50.4534 10.0321 53.1052C10.1427 70.8794 10.1743 88.652 10.5785 106.426C10.8615 118.868 10.5935 131.32 10.6035 143.768C10.6069 148.04 11.1038 148.435 15.878 148.245C18.7787 148.13 21.6758 147.908 24.5774 147.853C30.7887 147.735 30.9744 147.636 30.9337 141.948C30.7614 117.886 30.5969 93.8244 30.3181 69.7635C30.2874 67.1165 31.1311 65.3943 33.663 63.8897C39.7153 60.2932 45.4612 56.2809 51.5202 52.6943C54.2937 51.0526 56.5739 48.5668 60.0381 47.8813C61.3518 49.4654 60.5975 51.0605 60.8507 52.5268C61.5408 56.5231 59.8026 59.1263 55.8714 61.1901C51.5638 63.4515 47.6721 66.3508 43.2231 69.3664ZM74.7563 124.967C74.7687 131.352 74.7959 137.738 74.7859 144.123C74.782 146.613 75.9894 147.79 78.8789 147.724C84.0235 147.606 89.1726 147.64 94.3199 147.625C97.551 147.615 99.1685 146.268 99.1601 143.28C99.1192 128.829 99.0978 114.379 99.1596 99.929C99.1686 97.8128 98.1756 96.6768 96.0975 95.915C90.3587 93.8111 84.69 91.552 78.9341 89.4878C75.4894 88.2525 74.3243 88.9869 74.3515 92.3789C74.437 103.035 74.0417 113.697 74.7563 124.967Z" fill="#C1A265"/>
<path d="M234.259 77.6169C232.922 79.3629 231.904 80.9175 230.584 82.1502C224.731 87.6184 224.69 87.6027 231.997 91.5876C237.569 94.6263 241.22 99.1923 242.646 105.353C245.67 118.413 238.265 129.345 223.885 132C208.067 134.92 192.029 132.967 176.086 133.02C174.954 133.024 173.729 132.76 173.441 131.293C173.545 130.96 173.571 130.434 173.747 130.378C182.429 127.619 182.986 120.419 183.024 113.113C183.111 96.8036 182.967 80.4929 183.054 64.1834C183.088 57.6576 182.634 51.6643 174.597 50.0121C173.818 49.8522 173.329 48.9808 173.618 47.1256C177.853 46.7964 182.367 45.9964 186.839 46.1886C197.118 46.6304 207.484 45.8124 217.67 47.722C233.304 50.653 240.195 62.9185 234.259 77.6169ZM196.716 116.275C196.398 120.826 197.124 124.92 201.516 127.462C208.897 131.734 222.581 127.426 226.224 119.669C232.11 107.137 225.358 93.9729 211.786 91.8072C208.698 91.3145 205.495 91.464 202.345 91.4646C198.471 91.4653 196.625 93.428 196.693 97.3853C196.795 103.367 196.717 109.352 196.716 116.275ZM197.447 53.8519C195.883 63.5731 196.962 73.3521 196.834 83.1041C196.817 84.3481 197.61 85.1913 198.788 85.7303C205.609 88.8513 217.532 84.5674 220.303 77.8633C222.609 72.2833 222.595 66.5779 220.795 60.841C218.181 52.5093 205.242 48.6531 197.447 53.8519Z" fill="#C1A265"/>
<path d="M672.156 82.8253C669.724 79.1115 667.546 76.8435 662.676 79.045C659.717 80.3825 655.793 79.5881 652.301 79.7429C649.01 79.8888 647.114 81.0984 647.177 84.8947C647.348 95.2171 647.135 105.546 647.299 115.868C647.36 119.701 647.798 123.805 651.767 125.815C655.943 127.929 659.811 126.45 663.42 123.925C664.544 123.138 665.506 121.568 667.292 122.514C667.482 122.821 667.861 123.172 667.793 123.362C665.327 130.218 655.568 136.03 647.712 135.361C641.065 134.795 636.304 130.037 635.145 121.37C633.642 110.127 634.773 98.7617 634.634 87.4511C634.585 83.4796 635.065 79.6865 629.378 79.3153C627.337 79.182 627.095 77.0947 628.446 75.9753C635.313 70.2906 640.384 63.1357 645.448 55.9496C645.568 55.7797 646.074 55.8823 646.82 55.8262C648.787 59.4515 647.751 63.5119 647.641 67.3058C647.5 72.1939 649.006 74.1457 654.159 73.9906C664.957 73.6656 675.772 73.8553 686.579 73.9188C688.413 73.9296 690.652 73.1019 691.807 75.4705C691.709 75.8764 691.741 76.3499 691.544 76.4802C685.476 80.5056 685.376 80.5374 688.123 87.7825C691.703 97.2224 695.456 106.596 699.355 116.562C702.097 114.464 702.711 112.025 703.549 109.812C706.141 102.967 708.624 96.0796 711.135 89.2033C714.253 80.6635 714.246 80.6611 707.101 76.0378C706.964 74.7417 707.83 74.1046 708.853 74.0773C714.509 73.9265 720.168 73.882 725.826 73.8306C726.889 73.8209 727.865 74.1861 728.063 75.3701C728.264 76.5676 727.419 77.1573 726.429 77.5428C722.287 79.1551 720.568 82.7329 719.104 86.5305C711.8 105.469 704.528 124.419 697.157 143.331C695.036 148.774 692.405 154.001 688.614 158.504C686.22 161.348 683.502 163.866 679.305 163.348C675.221 162.844 672.838 160.304 672.777 156.412C672.713 152.411 675.353 150.754 679.358 150.626C690.577 150.267 697.228 139.437 692.705 129.272C685.871 113.915 679.123 98.5199 672.156 82.8253Z" fill="#C1A265"/>
<path d="M397.958 81.1702C408.244 71.3609 419.882 70.4597 433.179 75.4015C433.751 67.7513 433.882 60.8449 433.26 53.9539C432.971 50.7494 428.909 50.659 426.983 47.4204C433.127 44.7455 439.053 42.1651 444.864 39.6353C446.817 41.4912 446.141 43.4286 446.143 45.1554C446.172 69.1405 446.215 93.1262 446.077 117.111C446.043 123.028 445.879 128.694 453.592 130.507C448.255 134.242 437.335 134.365 433.417 131.148C430.585 128.822 428.405 131.13 426.152 132.193C413.607 138.115 399.341 133.378 392.909 121.065C385.352 106.596 386.845 94.2697 397.958 81.1702ZM414.723 124.763C416.644 125.258 418.541 126.028 420.491 126.199C427.446 126.811 434.02 122.215 434.086 116.89C434.179 109.253 434.32 101.616 434.351 93.9786C434.386 85.598 430.476 80.2115 423.191 78.4087C414.854 76.3457 407.158 79.7205 403.467 87.0907C398.128 97.7527 401.053 117.664 414.723 124.763Z" fill="#C1A265"/>
<path d="M514.673 78.2896C525.356 88.015 526.51 100.111 522.937 112.483C519.384 124.789 510.928 133.026 497.758 135.343C488.804 136.918 480.267 135.444 472.012 131.703C468.242 129.994 466.625 127.607 466.677 123.239C466.919 102.933 466.824 82.6222 466.814 62.3132C466.811 56.8799 468.093 50.8291 459.592 49.0907C459.85 48.6046 460.108 48.1184 460.366 47.6323C466.369 44.923 472.373 42.2137 479.495 39C479.495 52.9948 479.495 65.85 479.495 80.0949C491.547 71.86 502.864 69.1745 514.673 78.2896ZM507.761 122.17C512.322 114.2 512.469 105.723 510.72 96.9996C509.092 88.8799 503.15 82.9814 495.042 81.5578C487.889 80.3018 479.535 84.8683 479.432 90.3792C479.253 100.041 479.273 109.711 479.458 119.373C479.546 123.93 482.012 127.134 486.284 128.952C494.358 132.39 501.112 130.446 507.761 122.17Z" fill="#C1A265"/>
<path d="M253.656 81.7743C252.078 80.8792 250.412 80.8067 249.314 78.5623C255.768 76.0611 262.267 74.2106 269.025 72.6553C270.318 75.8511 269.597 78.6939 269.62 81.4455C269.714 92.6052 269.605 103.767 269.668 114.927C269.715 123.112 274.034 127.111 282.2 126.731C291.932 126.279 296.995 121.025 296.989 111.385C296.986 105.221 296.799 99.051 297.036 92.8968C297.27 86.8017 296.945 81.2641 289.131 80.0377C291.936 76.6808 304.051 72.7047 308.998 73.1328C310.047 75.1442 309.504 77.3372 309.51 79.4547C309.542 90.9476 309.519 102.441 309.511 113.934C309.504 123.798 309.501 123.798 316.507 131.534C310.72 133.257 305.067 133.63 299.321 133.268C299.158 133.258 298.913 133.246 298.848 133.145C294.677 126.667 290.432 131.145 286.24 133.078C281.08 135.458 275.606 135.98 270.114 135.288C264.659 134.601 261.216 130.955 259.321 125.985C257.65 121.603 257.049 116.971 257.039 112.28C257.022 104.284 256.973 96.2876 257.047 88.2927C257.072 85.5944 256.494 83.3477 253.656 81.7743Z" fill="#C1A265"/>
<path d="M362.059 70.0392C362.068 67.7067 362.105 65.873 362.076 64.0404C361.98 58.0555 363.832 51.3706 354.468 48.0979C361.606 44.8913 367.037 42.1539 372.7 40.038C375.357 39.0454 375.517 41.6566 375.388 43.4974C373.801 66.135 374.953 88.7999 374.738 111.45C374.67 118.663 372.359 126.947 382.217 131.233C373.014 133.915 364.51 133.573 355.409 131.665C363.905 127.712 362.308 120.556 362.292 114.034C362.256 99.5351 362.14 85.0368 362.059 70.0392Z" fill="#C1A265"/>
<path d="M569.428 107.036C569.51 91.736 569.611 76.9357 569.688 62.1352C569.716 56.6734 570.94 50.6639 562.951 48.8856C565.853 44.7513 570.018 44.6787 573.31 43.1437C583.193 38.5362 583.034 38.6431 582.514 49.4359C581.362 73.3637 582.229 97.315 581.967 121.254C581.915 126.067 585.17 128.536 588.71 130.845C585.17 133.82 569.787 134.205 563.258 131.42C573.131 125.345 568.39 115.77 569.428 107.036Z" fill="#C1A265"/>
<path d="M335.519 73.7788C337.517 72.8477 339.072 71.7897 341.058 72.0028C342.97 73.4721 342.572 75.6075 342.431 77.517C341.52 89.8352 342.123 102.167 342.007 114.49C341.913 124.486 341.968 124.487 348.468 130.915C344.743 134.078 327.554 134.351 322.507 130.781C331.35 127.741 329.451 120.479 329.641 114.001C329.842 107.176 329.902 100.345 330.209 93.5253C330.462 87.9032 330.266 82.6443 322.546 80.6756C326.847 76.9653 331.323 76.0124 335.519 73.7788Z" fill="#C1A265"/>
<path d="M336.155 47.3819C341.466 49.4024 343.617 52.7464 342.542 56.8006C341.417 61.0381 337.835 63.1863 333.339 62.3199C329.54 61.588 326.775 57.8375 327.351 53.797C328.033 49.0144 331.11 47.0583 336.155 47.3819Z" fill="#C1A265"/>
<path d="M537.72 89.3868C538.753 84.1051 535.033 82.3472 531.049 79.8824C537.193 76.0804 543.016 73.5094 549.143 71.7944C550.835 74.018 550.287 76.0812 550.295 78.012C550.35 91.3386 550.468 104.667 550.285 117.991C550.209 123.548 551.015 128.311 556.951 131.26C548.37 134.08 539.886 133.504 530.758 131.685C540.117 127.141 537.555 119 537.712 111.83C537.872 104.504 537.734 97.1711 537.72 89.3868Z" fill="#C1A265"/>
<path d="M539.039 61.5118C532.652 56.9781 535.409 48.7071 540.151 47.6826C543.465 46.9666 546.546 47.1325 548.764 49.9678C551.053 52.8943 551.119 56.2258 549.133 59.2872C546.738 62.9766 543.181 63.0475 539.039 61.5118Z" fill="#C1A265"/>
<path d="M609.802 73.0627C613.791 70.9488 614.857 72.4575 614.835 76.0958C614.756 89.7605 614.884 103.427 614.76 117.091C614.708 122.759 614.326 128.375 621.602 130.442C617.079 133.906 600.225 134.259 594.71 130.78C603.864 128.139 602.128 121.027 602.176 114.643C602.23 107.477 602.144 100.311 602.216 93.1455C602.268 87.9695 603.183 82.4901 594.982 80.5372C600.397 76.9886 604.982 75.2277 609.802 73.0627Z" fill="#C1A265"/>
<path d="M601.099 59.0513C599.274 52.3693 600.5 48.8812 604.994 47.7032C608.909 46.6772 612.438 47.5171 614.278 51.4254C616.009 55.1032 615.547 58.8455 611.927 61.1261C608.152 63.5041 604.333 63.1847 601.099 59.0513Z" fill="#C1A265"/>
</svg>
